<svg xmlns="http://www.w3.org/2000/svg" width="400" height="400" style="shape-rendering:geometricPrecision;text-rendering:geometricPrecision;image-rendering:optimizeQuality;fill-rule:evenodd;clip-rule:evenodd"><path style="opacity:.999" fill="#0d0d0d" d="M196.5 5.5c12.603-1.96 20.77 3.04 24.5 15 1.034 10.264-2.966 17.93-12 23a32.462 32.462 0 0 0-.5 8c51.928 5.37 90.095 31.036 114.5 77a100.012 100.012 0 0 1 4.5 13c4.914 3.312 6.914 1.812 6-4.5a1460.657 1460.657 0 0 1-1.5-43.5c-8.156-5.617-9.823-12.617-5-21 8.786-8.423 16.786-7.756 24 2 2.598 7.204.931 13.204-5 18a783.858 783.858 0 0 0 0 56c5.366 3.69 8.699 8.69 10 15 .667 22 .667 44 0 66-1.958 9.293-7.458 15.46-16.5 18.5a130.775 130.775 0 0 1-11 2.5c2.434 9.153-.566 15.486-9 19-4 34.299-21.667 58.299-53 72-8.23 33.458-29.563 51.458-64 54-27.961-.708-48.128-13.375-60.5-38a52.942 52.942 0 0 1-3.5-16c-32.754-12.775-50.754-36.775-54-72-4.076-.579-7.243-2.579-9.5-6a86.708 86.708 0 0 0-1.5-13c-14.846-1.022-24.013-8.689-27.5-23a1024.199 1024.199 0 0 1 0-64c1.97-6.285 5.637-11.285 11-15a756.462 756.462 0 0 0 0-55l-6-8c-2.03-10.642 2.302-16.976 13-19 12.2 2.06 16.533 9.06 13 21l-6 6c-.5 16.33-.667 32.663-.5 49h5c8.268-24.689 22.601-45.189 43-61.5 22.673-17.395 48.34-27.228 77-29.5a32.462 32.462 0 0 0-.5-8c-12.266-6.462-15.6-16.129-10-29a46.62 46.62 0 0 0 5.5-6c2.104-1.02 4.104-2.02 6-3z"/><path style="opacity:1" fill="#f5f5f5" d="M237.5 77.5c-1.311 1.42-1.977 2.753-2 4a212.409 212.409 0 0 0-49-3.5c-2.626 2.146-5.626 3.479-9 4-1.333 1.667-1.333 3.333 0 5a41.042 41.042 0 0 1 9 6c6.658.5 13.325.666 20 .5v4c-25.002.167-50.002 0-75-.5l-1-1c14.014-13.34 30.681-21.34 50-24 19.477-2.074 38.477-.24 57 5.5zM199.5 17.5c7.132.302 9.965 3.969 8.5 11-2.909 2.894-6.409 3.727-10.5 2.5-4.466-5.364-3.8-9.864 2-13.5z"/><path style="opacity:1" fill="#e9e9e8" d="M62.5 79.5c4.409-.601 5.742 1.066 4 5-4.183.809-5.516-.858-4-5z"/><path style="opacity:1" fill="#c7c8c8" d="M237.5 77.5c12.792 3.807 24.125 10.14 34 19-6.951-2.46-13.951-5.627-21-9.5a131.556 131.556 0 0 1-15-5.5c.023-1.247.689-2.58 2-4z"/><path style="opacity:1" fill="#eee" d="M336.5 79.5c5.675.36 6.342 2.36 2 6-2.89-1.337-3.557-3.337-2-6z"/><path style="opacity:1" fill="#fcfcfc" d="M308.5 140.5a145.053 145.053 0 0 1-.5 17c-5.09 4.924-8.09 10.924-9 18-.5 19.33-.667 38.664-.5 58-10.412-1.458-20.078.375-29 5.5-6.158 5.481-9.824 12.315-11 20.5h8c1.03 21.446-7.637 37.612-26 48.5-12.467 6.801-25.801 9.634-40 8.5v11a416.75 416.75 0 0 1-48-1.5c-35.923-11.818-51.256-36.651-46-74.5h16c-.247 3.005.753 5.505 3 7.5 6.325.5 12.658.666 19 .5-1.795-13.294-9.128-21.794-22-25.5-9.661-.5-19.328-.666-29-.5-.167-30.668 0-61.335.5-92 2.674-15.231 11.507-24.397 26.5-27.5a6477.262 6477.262 0 0 1 161 0c15.437 2.27 24.437 11.103 27 26.5z"/><path style="opacity:1" fill="#151515" d="M113.5 126.5c6.827-1.326 9.994 1.34 9.5 8-3.667 4-7.333 4-11 0-.891-2.998-.391-5.664 1.5-8z"/><path style="opacity:1" fill="#111" d="M282.5 126.5c8.987-.835 11.32 2.665 7 10.5-8.561.609-10.895-2.891-7-10.5z"/><path style="opacity:1" fill="#0f0f0f" d="M142.5 138.5c21.889-2.641 37.389 6.026 46.5 26 4.405 18.785-.761 34.285-15.5 46.5-17.935 9.801-34.769 8.301-50.5-4.5-12.413-14.496-14.746-30.496-7-48 6.445-9.96 15.279-16.626 26.5-20zM244.5 138.5c32.603-1.23 48.437 14.437 47.5 47-6.384 23.035-21.551 33.535-45.5 31.5-24.098-6.681-34.931-22.515-32.5-47.5 4.363-16.195 14.529-26.529 30.5-31z"/><path style="opacity:1" fill="#f6f6f6" d="M176.5 171.5c-1.078 3.408-3.411 5.408-7 6-1.117-8.08-5.45-13.58-13-16.5-9.93-1.416-17.097 2.417-21.5 11.5-2.138 11.74 2.362 19.407 13.5 23 .536 3.198-.131 5.865-2 8-16.569-5.464-23.069-16.798-19.5-34 7.228-15.688 19.062-20.522 35.5-14.5 7.032 3.529 11.698 9.029 14 16.5z"/><path style="opacity:1" fill="#f5f5f5" d="M277.5 171.5c-.82 3.6-3.153 5.6-7 6-2.651-12.337-10.317-17.837-23-16.5-9.463 4.09-13.296 11.257-11.5 21.5 2.059 6.892 6.559 11.226 13.5 13 .389 3.053-.277 5.72-2 8-15.326-4.639-22.159-14.972-20.5-31 7.472-18.721 20.639-24.221 39.5-16.5 5.765 3.703 9.432 8.87 11 15.5z"/><path style="opacity:1" fill="#bfc0bf" d="M308.5 140.5a2163.924 2163.924 0 0 1 1 93h-11c-.167-19.336 0-38.67.5-58 .91-7.076 3.91-13.076 9-18 .499-5.657.666-11.324.5-17z"/><path style="opacity:1" fill="#fdfdfd" d="M74.5 209.5a47.784 47.784 0 0 1-10-6c-.166-12.005 0-24.005.5-36 1.81-4.155 4.977-6.155 9.5-6v48z"/><path style="opacity:1" fill="#f9f9f9" d="M328.5 161.5c4.184.344 7.351 2.344 9.5 6 .5 12.329.667 24.662.5 37l-4 2a547.383 547.383 0 0 1-1.5-33c-2.394-3.767-3.894-7.767-4.5-12z"/><path style="opacity:1" fill="#101010" d="M169.5 177.5c-.784 13.111-7.784 19.111-21 18-11.138-3.593-15.638-11.26-13.5-23 4.403-9.083 11.57-12.916 21.5-11.5 7.55 2.92 11.883 8.42 13 16.5z"/><path style="opacity:1" fill="#f1f1f1" d="M143.5 166.5c9.468-.215 11.801 3.618 7 11.5-5.485 1.894-9.151.227-11-5 .75-2.571 2.083-4.738 4-6.5z"/><path style="opacity:1" fill="#101010" d="M270.5 177.5c-1.056 12.72-8.056 18.72-21 18-6.941-1.774-11.441-6.108-13.5-13-1.796-10.243 2.037-17.41 11.5-21.5 12.683-1.337 20.349 4.163 23 16.5z"/><path style="opacity:1" fill="#f4f4f4" d="M244.5 166.5c8.692-.738 11.358 2.762 8 10.5-11.181 2.985-13.848-.515-8-10.5z"/><path style="opacity:1" fill="#c2c2bf" d="M277.5 171.5c2.883 19.153-5.45 30.153-25 33-1.869-.007-3.536-.34-5-1 1.723-2.28 2.389-4.947 2-8 12.944.72 19.944-5.28 21-18 3.847-.4 6.18-2.4 7-6z"/><path style="opacity:1" fill="#c0c1c0" d="M176.5 171.5c2.887 16.042-3.446 26.875-19 32.5-3.858.81-7.524.643-11-.5 1.869-2.135 2.536-4.802 2-8 13.216 1.111 20.216-4.889 21-18 3.589-.592 5.922-2.592 7-6z"/><path style="opacity:1" fill="#c1c2c0" d="M328.5 161.5c.606 4.233 2.106 8.233 4.5 12a547.383 547.383 0 0 0 1.5 33l4-2c.166 6.675 0 13.342-.5 20-2.056 4.565-5.556 6.898-10.5 7-.331-23.506.002-46.839 1-70z"/><path style="opacity:1" fill="#c6c7c4" d="M64.5 203.5a47.784 47.784 0 0 0 10 6v22c-4.412-.57-7.578-2.903-9.5-7a220.94 220.94 0 0 1-.5-21z"/><path style="opacity:1" fill="#111" d="M198.5 232.5c11.931.746 14.931 6.246 9 16.5-9.892 3.438-14.726-.062-14.5-10.5 1.36-2.523 3.193-4.523 5.5-6z"/><path style="opacity:1" fill="#c3c3c2" d="M200.5 327.5v-11c14.199 1.134 27.533-1.699 40-8.5 18.363-10.888 27.03-27.054 26-48.5a60.931 60.931 0 0 0 11-.5c2.541-1.848 3.541-4.348 3-7.5h17c4.496 39.874-12.504 65.041-51 75.5-15.33.5-30.663.667-46 .5z"/><path style="opacity:1" fill="#111" d="M161.5 267.5c20.119 7.064 40.786 8.897 62 5.5a611.692 611.692 0 0 1 19-5.5c-4.719 11.875-13.386 19.375-26 22.5-19.092 4.981-35.925.815-50.5-12.5-2.324-2.98-3.824-6.313-4.5-10zM288.5 263.5c2.102 23.936-7.898 41.103-30 51.5-4.794 2.38-9.794 3.713-15 4 17.924-6.924 30.091-19.424 36.5-37.5a57.35 57.35 0 0 0 1.5-15c2.991.334 5.324-.666 7-3z"/><path style="opacity:1" fill="#f5f5f5" d="M199.5 369.5a748.6 748.6 0 0 1 14 2.5c1.619.236 2.619 1.069 3 2.5-22.656 6.138-40.823-.196-54.5-19-.788-1.665-1.122-3.331-1-5a9319.092 9319.092 0 0 1 23.5 15.5 55.276 55.276 0 0 0 15 3.5z"/><path style="opacity:1" fill="#bfc0bf" d="M216.5 374.5c-.381-1.431-1.381-2.264-3-2.5a748.6 748.6 0 0 0-14-2.5c10.095.31 19.428-2.19 28-7.5a83.459 83.459 0 0 1 15-11.5c-1.533 5.824-4.867 10.99-10 15.5a61.464 61.464 0 0 1-16 8.5z"/></svg>