<svg xmlns="http://www.w3.org/2000/svg" width="400" height="400" style="shape-rendering:geometricPrecision;text-rendering:geometricPrecision;image-rendering:optimizeQuality;fill-rule:evenodd;clip-rule:evenodd"><path style="opacity:1" fill="#080d14" d="M185.5 3.5c22.584-1.989 43.251 3.178 62 15.5l7 9c15.986 1.994 29.986 8.327 42 19 28.306 27.216 43.306 60.55 45 100a85024.717 85024.717 0 0 0-7 53c4.895 7.804 6.728 16.304 5.5 25.5a165.938 165.938 0 0 1-14 47c-5.325 7.322-12.325 12.322-21 15-10.61 38.918-32.443 69.751-65.5 92.5-29.037 17.959-58.037 17.959-87 0-32.665-23.141-54.665-53.974-66-92.5-8.504-2.673-15.338-7.673-20.5-15-10.521-19.748-14.855-40.748-13-63a41.368 41.368 0 0 1 4.5-9.5c-2.478-6.823-3.145-13.823-2-21-4.661-14.126-6.161-28.626-4.5-43.5C60.892 74.942 94.392 33.442 151.5 11c11.23-3.61 22.563-6.11 34-7.5z"/><path style="opacity:1" fill="#eceded" d="M173.5 15.5c13.224-1.776 25.557.724 37 7.5-24.275-2.399-47.608 1.268-70 11a12132.35 12132.35 0 0 0-26 14c16.243-17.12 35.91-27.953 59-32.5z"/><path style="opacity:1" fill="#f8f8f9" d="M72.5 116.5c-.992.172-1.658-.162-2-1a1132.546 1132.546 0 0 0 53-45.5 145.17 145.17 0 0 1 28-16c-18.565.951-34.899 7.451-49 19.5-.904-.709-1.237-1.709-1-3 21.983-24.99 49.65-37.49 83-37.5 17.782 2.72 32.448 10.888 44 24.5l-1 1c-6.283-3.16-12.95-4.826-20-5-15.087 1.77-29.087 6.603-42 14.5a1550.905 1550.905 0 0 1-43 31c-15.752 8.528-32.418 14.361-50 17.5z"/><path style="opacity:1" fill="#fdfdfd" d="M194.5 69.5a6562.14 6562.14 0 0 1 2 23c.607-.124.94-.457 1-1 27.888-20.747 56.222-21.247 85-1.5 14.821 10.984 24.155 25.484 28 43.5.295 2.235-.039 4.235-1 6a134.761 134.761 0 0 0-8-13c-.283-.789-.783-1.456-1.5-2-.796 2.539-.629 4.872.5 7a8605.487 8605.487 0 0 1 5.5 81c.667 10 .667 20 0 30a491.158 491.158 0 0 1-22 69c-14.111 29.777-35.944 51.944-65.5 66.5l-17 5c-4.087.762-8.087.596-12-.5-.709-.904-1.709-1.237-3-1v-4c-5.883-.773-11.216-2.94-16-6.5-21.685-17.347-38.518-38.513-50.5-63.5a383.436 383.436 0 0 1-22-66c-2.984-12.042.182-21.876 9.5-29.5a12.93 12.93 0 0 1 5-.5c2.819 1.597 5.819 2.097 9 1.5-2.16-.996-3.827-2.496-5-4.5 1.457-2.285 3.457-4.118 6-5.5 1.693-.484 3.027.016 4 1.5 2.12 9.256 7.786 12.423 17 9.5 2.858-1.694 5.191-3.861 7-6.5.65-.304 1.317-.637 2-1 2.776 1.63 5.776 2.297 9 2 .526 3.308-.807 5.474-4 6.5 4.244 1.013 8.077.18 11.5-2.5.315-1.408-.018-2.741-1-4a19.552 19.552 0 0 1-3.5-4c.31-1.644 1.31-2.644 3-3 1 .333 1.667 1 2 2 7.874 6.591 11.541 15.091 11 25.5a107.9 107.9 0 0 1-2.5 20.5 561.73 561.73 0 0 1-7.5 25.5c1.364 7.038 5.364 12.038 12 15 4.333 3.502 9 4.168 14 2 5.672-5.093 12.338-8.093 20-9 1.859-.601 2.192-1.434 1-2.5-1.302-2.322-3.302-3.655-6-4a1296.34 1296.34 0 0 0-18-.5 6.978 6.978 0 0 1-2.5-3.5 971.47 971.47 0 0 0-2-57c-1.679-10.012-5.512-19.012-11.5-27a172.972 172.972 0 0 0-11-18.5 292.202 292.202 0 0 0-39.5-6.5c-4.719.139-9.219 1.139-13.5 3-4.748-17.39-3.748-34.39 3-51a285.314 285.314 0 0 0 20-10.5 804.46 804.46 0 0 1 39-28c5.933-3.637 12.266-6.137 19-7.5z"/><path style="opacity:1" fill="#c2c4c6" d="M101.5 70.5c-.237 1.291.096 2.291 1 3-3.97 3.139-7.47 6.805-10.5 11l-.5-1a136.868 136.868 0 0 1 10-13z"/><path style="opacity:1" fill="#a8a9ac" d="M194.5 69.5c.06-.543.393-.876 1-1a6562.14 6562.14 0 0 0 2 23c-.06.543-.393.876-1 1a6562.14 6562.14 0 0 0-2-23z"/><path style="opacity:1" fill="#75787b" d="M70.5 115.5c.342.838 1.008 1.172 2 1-.886 1.276-1.886 1.276-3 0 .124-.607.457-.94 1-1z"/><path style="opacity:1" fill="#6c6e6f" d="M301.5 126.5c-.951 1.419-1.284 3.085-1 5-1.129-2.128-1.296-4.461-.5-7 .717.544 1.217 1.211 1.5 2z"/><path style="opacity:1" fill="#b4b5b7" d="M310.5 133.5c1.974 4.776 2.308 9.776 1 15a18.346 18.346 0 0 1-2-9c.961-1.765 1.295-3.765 1-6z"/><path style="opacity:1" fill="#0d1117" d="M177.5 188.5c.065.438-.101.772-.5 1-19.696-9.798-40.529-13.965-62.5-12.5-6.038 1.454-11.705 3.454-17 6 4.193-6.692 9.527-12.192 16-16.5 4.281-1.861 8.781-2.861 13.5-3a292.202 292.202 0 0 1 39.5 6.5 172.972 172.972 0 0 1 11 18.5z"/><path style="opacity:1" fill="#0c1016" d="M257.5 163.5c15.005-.914 26.838 4.753 35.5 17 .688.832.521 1.498-.5 2-12.326-5.686-25.326-7.519-39-5.5l-24 6a66.277 66.277 0 0 0-14.5 6.5c2.526-6.878 6.026-13.378 10.5-19.5a1214.622 1214.622 0 0 1 32-6.5z"/><path style="opacity:1" fill="#c3c5c7" d="M116.5 115.5c-6.748 16.61-7.748 33.61-3 51-6.473 4.308-11.807 9.808-16 16.5 5.295-2.546 10.962-4.546 17-6 21.971-1.465 42.804 2.702 62.5 12.5.399-.228.565-.562.5-1 5.988 7.988 9.821 16.988 11.5 27a971.47 971.47 0 0 1 2 57 6.978 6.978 0 0 0 2.5 3.5c6.187.13 12.187.297 18 .5-5.121.276-8.788 2.776-11 7.5a125.771 125.771 0 0 1 17-3.5c1.192 1.066.859 1.899-1 2.5-7.662.907-14.328 3.907-20 9-5 2.168-9.667 1.502-14-2-6.636-2.962-10.636-7.962-12-15a561.73 561.73 0 0 0 7.5-25.5 107.9 107.9 0 0 0 2.5-20.5c.541-10.409-3.126-18.909-11-25.5-1.699-7.232-6.365-12.399-14-15.5-13.104-4.066-25.771-3.066-38 3a93.384 93.384 0 0 1-19 12c5.531 1.591 10.198 4.424 14 8.5a12.93 12.93 0 0 0-5 .5c-9.318 7.624-12.484 17.458-9.5 29.5a383.436 383.436 0 0 0 22 66c11.982 24.987 28.815 46.153 50.5 63.5 4.784 3.56 10.117 5.727 16 6.5v4c1.291-.237 2.291.096 3 1-22.804-5.627-41.971-17.294-57.5-35-18.19-22.044-30.856-47.044-38-75a686.21 686.21 0 0 0-8-32c-.5-7.659-.666-15.326-.5-23 1.739-7.088 2.406-14.421 2-22 1.4-24.036 3.234-48.036 5.5-72a195.074 195.074 0 0 0 23.5-8z"/><path style="opacity:1" fill="#0d1117" d="M169.5 203.5c-.333-1-1-1.667-2-2-4.813-6.249-11.147-10.249-19-12-1.333.667-1.333 1.333 0 2 5.982 3.66 11.315 7.993 16 13a19.552 19.552 0 0 0 3.5 4c.982 1.259 1.315 2.592 1 4-3.423 2.68-7.256 3.513-11.5 2.5 3.193-1.026 4.526-3.192 4-6.5a40.665 40.665 0 0 0-9.5-9 99.899 99.899 0 0 1-1.5 8c-1.809 2.639-4.142 4.806-7 6.5-9.214 2.923-14.88-.244-17-9.5v-7c-4.742-.364-8.908.97-12.5 4-.061 2.651.773 4.984 2.5 7 1.173 2.004 2.84 3.504 5 4.5-3.181.597-6.181.097-9-1.5-3.802-4.076-8.469-6.909-14-8.5a93.384 93.384 0 0 0 19-12c12.229-6.066 24.896-7.066 38-3 7.635 3.101 12.301 8.268 14 15.5z"/><path style="opacity:1" fill="#0f1318" d="M275.5 207.5c3.059-3.603 2.392-6.437-2-8.5a18.991 18.991 0 0 0-8-1.5v7c-2.223 8.141-7.557 11.641-16 10.5-6.392-3.083-9.558-8.25-9.5-15.5a63.726 63.726 0 0 0-10 9c-.269 2.78.898 4.946 3.5 6.5-4.55 1.338-8.217.171-11-3.5 5.524-9.024 12.857-16.191 22-21.5-9.094.637-16.261 4.804-21.5 12.5 3.007-9.322 9.507-14.822 19.5-16.5 10.462-1.649 20.462-.315 30 4a113.625 113.625 0 0 0 21 13l-8 3c-4.191 4.265-9.191 6.598-15 7 2.556-1.055 4.223-2.888 5-5.5z"/><path style="opacity:1" fill="#e8e9ea" d="M136.5 195.5c6.055-.558 7.388 1.609 4 6.5-4.709.082-6.042-2.085-4-6.5z"/><path style="opacity:1" fill="#e7e8e9" d="M250.5 195.5c6.055-.558 7.388 1.609 4 6.5-4.709.082-6.042-2.085-4-6.5z"/><path style="opacity:1" fill="#d3d7da" d="M167.5 201.5c-1.69.356-2.69 1.356-3 3-4.685-5.007-10.018-9.34-16-13-1.333-.667-1.333-1.333 0-2 7.853 1.751 14.187 5.751 19 12z"/><path style="opacity:1" fill="#babec1" d="M126.5 204.5c-.973-1.484-2.307-1.984-4-1.5-2.543 1.382-4.543 3.215-6 5.5-1.727-2.016-2.561-4.349-2.5-7 3.592-3.03 7.758-4.364 12.5-4v7z"/><path style="opacity:1" fill="#c1c4c8" d="M275.5 207.5c-2.459-4.588-5.792-5.588-10-3v-7a18.991 18.991 0 0 1 8 1.5c4.392 2.063 5.059 4.897 2 8.5z"/><path style="opacity:1" fill="#c4c7cd" d="M161.5 208.5c-3.224.297-6.224-.37-9-2-.683.363-1.35.696-2 1a99.899 99.899 0 0 0 1.5-8 40.665 40.665 0 0 1 9.5 9z"/><path style="opacity:1" fill="#86878b" d="M87.5 195.5c.406 7.579-.261 14.912-2 22 .296-7.514.962-14.847 2-22z"/><path style="opacity:1" fill="#b3b4b6" d="M327.5 212.5c-3.787-.686-6.954.314-9.5 3a72.367 72.367 0 0 0-.5 12c-2.618-8.427-.785-15.76 5.5-22 2.502 1.665 4.002 3.998 4.5 7z"/><path style="opacity:1" fill="#bfc1c3" d="M67.5 205.5c4.035 1.549 6.535 4.549 7.5 9 1.403 7.835.07 15.169-4 22-1.446 8.103 1.22 14.437 8 19 2.48 5.888 3.646 11.888 3.5 18-5.09-2.591-8.59-6.591-10.5-12-6.506-14.684-9.506-30.017-9-46 .836-3.691 2.336-7.024 4.5-10z"/><path style="opacity:1" fill="#f1f1f1" d="M327.5 212.5c.768.763 1.268 1.763 1.5 3 .104 18.252-3.896 35.585-12 52a21.754 21.754 0 0 1-7.5 6c-.674-9.471 2.493-17.471 9.5-24 2.072-3.432 2.738-7.098 2-11a5826.34 5826.34 0 0 1-3.5-11 72.367 72.367 0 0 1 .5-12c2.546-2.686 5.713-3.686 9.5-3z"/><path style="opacity:1" fill="#13161b" d="M178.5 276.5c6.16-.272 10.16 2.395 12 8a72.195 72.195 0 0 0-16-4c1.049-1.716 2.382-3.049 4-4z"/><path style="opacity:1" fill="#14171e" d="M211.5 276.5c2.698.345 4.698 1.678 6 4a125.771 125.771 0 0 0-17 3.5c2.212-4.724 5.879-7.224 11-7.5z"/><path style="opacity:1" fill="#0b0f16" d="M177.5 319.5a139.422 139.422 0 0 0-16-2 48.363 48.363 0 0 1-11-2.5c-3.377-2.285-3.71-4.785-1-7.5 3.031 3.013 6.698 4.679 11 5a161.803 161.803 0 0 0 24-6c3.866 1.18 7.7 2.514 11.5 4a46.997 46.997 0 0 1 10.5-4c9.692 3.759 19.692 5.259 30 4.5a15.83 15.83 0 0 0 5.5-3.5c2.055 1.172 2.722 2.839 2 5a15.83 15.83 0 0 1-5.5 3.5 333.247 333.247 0 0 1-61 3.5z"/><path style="opacity:1" fill="#b2b4b5" d="M161.5 317.5a139.422 139.422 0 0 1 16 2 84.902 84.902 0 0 1-13-.5c-1.237-.232-2.237-.732-3-1.5z"/><path style="opacity:1" fill="#16181d" d="M174.5 336.5c.06-.543.393-.876 1-1a62.604 62.604 0 0 0 18 2 249.257 249.257 0 0 0 24-1.5c-14.292 9.778-28.625 9.945-43 .5z"/></svg>